<svg width="1379" height="178" viewBox="0 0 1379 178" fill="none" xmlns="http://www.w3.org/2000/svg">
<path d="M1320.07 0.234972C1311.78 -0.373587 1303.47 0.688635 1295.59 3.36094C1287.71 6.03325 1280.42 10.2633 1274.14 15.8092C1267.87 21.3553 1262.72 28.1085 1259 35.6832C1255.29 43.2578 1253.07 51.5054 1252.48 59.9546C1252.05 66.9362 1252.68 73.9438 1254.36 80.7271C1265.27 83.6265 1275.23 89.4427 1283.2 97.576C1291.17 105.709 1296.88 115.865 1299.72 126.997C1308.7 129.347 1318.08 129.661 1327.2 127.917C1336.32 126.173 1344.96 122.414 1352.51 116.901C1360.05 111.39 1366.32 104.26 1370.88 96.0138C1375.43 87.7666 1378.15 78.603 1378.86 69.1662C1379.97 52.0865 1374.41 35.2528 1363.4 22.3388C1352.38 9.42472 1336.81 1.47875 1320.07 0.234972ZM1315.44 96.7822C1309.21 96.7822 1303.13 94.8995 1297.95 91.3718C1292.77 87.8442 1288.74 82.8302 1286.36 76.9641C1283.97 71.0979 1283.36 64.6429 1284.57 58.4154C1285.78 52.1879 1288.78 46.4675 1293.18 41.9778C1297.59 37.488 1303.2 34.4304 1309.29 33.1917C1315.4 31.953 1321.73 32.5888 1327.48 35.0186C1333.24 37.4484 1338.15 41.5633 1341.6 46.8427C1345.06 52.1221 1346.91 58.329 1346.91 64.6785C1346.91 73.1929 1343.6 81.3586 1337.7 87.3794C1331.79 93.3997 1323.79 96.7822 1315.44 96.7822Z" fill="#00CD81"/>
<path d="M1238.35 175.387C1255.73 175.387 1269.82 161.013 1269.82 143.283C1269.82 125.553 1255.73 111.18 1238.35 111.18C1220.96 111.18 1206.87 125.553 1206.87 143.283C1206.87 161.013 1220.96 175.387 1238.35 175.387Z" fill="#00CD81"/>
<path d="M1143.05 63.9711C1124.77 44.1433 1085.65 36.8276 1062.97 60.9006V0.236197C1050.47 0 1038.9 0 1027.09 0V172.998H1062.51C1062.74 168.747 1062.97 164.738 1063.2 160.231C1085.65 184.311 1124.77 176.752 1143.05 157.161C1154.32 144.364 1160.55 127.769 1160.55 110.566C1160.55 93.3629 1154.32 76.7675 1143.05 63.9711ZM1092.59 141.636C1084.46 141.572 1076.69 138.217 1070.98 132.306C1065.27 126.396 1062.09 118.415 1062.16 110.119C1062.22 101.823 1065.51 93.8918 1071.31 88.0697C1077.1 82.2478 1084.92 79.0124 1093.06 79.075C1097.13 78.9467 1101.17 79.6614 1104.96 81.1758C1108.75 82.6902 1112.2 84.9731 1115.1 87.8858C1118 90.7985 1120.29 94.2806 1121.83 98.1221C1123.37 101.964 1124.13 106.084 1124.07 110.233C1124.18 114.449 1123.45 118.645 1121.9 122.556C1120.35 126.466 1118.02 130.007 1115.06 132.956C1112.11 135.905 1108.59 138.197 1104.71 139.69C1100.85 141.183 1096.72 141.843 1092.59 141.629V141.636Z" fill="#133C3D"/>
<path d="M224.492 128.652C224.26 118.266 224.492 108.115 224.492 97.7289V48.3959H188.373C188.142 52.4112 187.91 55.9478 187.678 60.6718C169.397 38.9671 129.823 42.0249 109.921 62.3251C98.0105 74.5571 91.042 90.909 90.399 108.136C89.7552 125.364 95.4835 142.208 106.448 155.329C116.13 166.828 129.825 174.026 144.625 175.394C162.675 176.811 179.573 174.449 191.834 158.872C196.837 166.5 204.291 172.111 212.912 174.738C221.532 177.365 230.782 176.845 239.067 173.268V143.762C226.807 142.817 224.954 140.928 224.492 128.652ZM158.332 141.636C154.278 141.753 150.242 141.044 146.459 139.554C142.676 138.062 139.222 135.818 136.298 132.951C133.374 130.084 131.039 126.653 129.429 122.856C127.819 119.059 126.967 114.974 126.92 110.837C126.874 106.702 127.636 102.597 129.161 98.764C130.686 94.931 132.943 91.4463 135.803 88.5125C138.662 85.5787 142.065 83.2547 145.814 81.6763C149.562 80.0978 153.582 79.2964 157.637 79.3185C161.808 79.1192 165.976 79.771 169.897 81.2359C173.818 82.7008 177.413 84.9495 180.47 87.8495C183.528 90.7496 185.988 94.2435 187.705 98.1254C189.422 102.008 190.361 106.201 190.47 110.459C190.408 114.67 189.523 118.828 187.867 122.688C186.21 126.547 183.815 130.03 180.822 132.934C177.83 135.837 174.298 138.103 170.436 139.597C166.574 141.092 162.46 141.785 158.332 141.636Z" fill="#133C3D"/>
<path d="M838.22 129.832C837.988 115.667 838.452 101.507 837.526 87.3417C837.494 76.0827 833.095 65.2938 825.29 57.3323C817.484 49.3708 806.906 44.8839 795.868 44.8519C788.629 44.052 781.308 45.1745 774.62 48.1105C767.93 51.0466 762.099 55.6966 757.69 61.6091V0H721.81V172.998H757.909C757.909 149.156 757.678 125.759 757.909 102.656C757.676 99.4009 758.12 96.1322 759.215 93.0651C760.309 89.998 762.028 87.2017 764.259 84.8609C766.489 82.5204 769.18 80.6882 772.154 79.4852C775.13 78.282 778.32 77.7354 781.517 77.8812C794.247 78.1175 801.188 86.6138 801.419 102.67C801.651 116.835 800.956 130.994 802.114 145.159C804.661 170.656 825.953 182.452 849.088 172.303V142.101C840.097 143.046 838.452 137.147 838.22 129.832Z" fill="#133C3D"/>
<path d="M420.054 49.8054C389.737 37.038 352.461 46.9711 336.739 73.1762C329.581 84.0309 325.681 96.7791 325.516 109.86C325.352 122.94 328.93 135.787 335.813 146.825C349.933 170.904 373.303 177.512 399.457 176.095C408.062 175.836 416.53 173.823 424.36 170.174C432.191 166.526 439.225 161.315 445.051 154.85C438.573 147.061 432.534 139.739 426.275 132.423C419.764 138.843 411.471 143.059 402.525 144.494C393.58 145.931 384.417 144.518 376.287 140.448C372.342 138.811 368.971 135.997 366.618 132.375C364.264 128.754 363.036 124.493 363.095 120.147H454.971C457.97 106.115 456.134 91.4573 449.774 78.6441C443.414 65.8309 432.918 55.6459 420.054 49.8054ZM364.509 95.6151C365.435 84.0476 375.386 76.4638 390.658 75.5509C405.929 74.638 416.318 81.4495 419.585 95.6151H364.509Z" fill="#133C3D"/>
<path d="M592.708 129.123C592.245 114.958 592.939 100.798 591.781 86.6327C589.904 62.5534 575.353 47.9219 551.977 45.3237C544.343 44.1294 536.537 44.9327 529.291 47.6583C522.045 50.3839 515.596 54.9425 510.551 60.9064C510.32 55.9462 510.088 52.1735 509.856 48.1389H474.42V172.788H510.295C510.295 149.653 510.063 126.991 510.295 104.335C510.295 87.8137 519.551 77.6636 533.902 77.6636C548.253 77.6636 555.657 86.1603 555.889 104.099C556.12 118.264 555.657 132.423 556.814 146.588C558.435 164.999 568.155 173.969 586.23 174.677C592.013 174.913 597.57 173.969 603.817 173.732V142.573C594.066 140.69 592.908 139.509 592.708 129.123Z" fill="#133C3D"/>
<path d="M665.101 0.47168H629.427V48.1516H614.406V81.9087H629.915C629.915 100.555 629.452 117.792 630.147 135.493C630.61 150.131 634.315 163.818 648.428 171.376C661.422 177.715 676.242 178.975 690.085 174.919V142.573C686.472 142.956 682.84 143.114 679.208 143.045C672.73 142.573 666.691 139.975 666.478 132.423C666.015 115.666 666.247 99.8659 666.247 82.1449H692.395V48.3878H665.551C665.101 31.6306 665.101 15.7926 665.101 0.47168Z" fill="#133C3D"/>
<path d="M294.13 122.273V0.47168H257.566C257.566 0.47168 257.566 105.752 258.03 139.036C257.566 146.338 259.406 153.599 263.278 159.757C267.151 165.917 272.854 170.65 279.553 173.266C291.409 177.866 304.419 178.363 316.579 174.683V142.573C297.622 144.226 294.13 141.156 294.13 122.273Z" fill="#133C3D"/>
<path d="M985.664 123.926V48.1514H949.1V58.5377C949.1 77.4207 949.328 96.3035 948.871 115.194C948.905 120.741 947.712 126.224 945.394 131.242C943.347 135.533 939.963 139.015 935.775 141.148C931.596 143.282 926.833 143.949 922.239 143.045C917.654 142.753 913.348 140.683 910.209 137.261C907.062 133.839 905.328 129.323 905.336 124.634C904.414 102.445 904.642 80.4913 904.414 58.3015V48.3876H869.237C869.237 78.6017 867.841 108.343 869.694 138.085C870.853 159.094 887.282 173.26 907.646 175.379C925.006 177.293 941.206 175.379 952.78 158.622V158.858C955.385 164.782 959.979 169.557 965.74 172.315C965.8 172.315 965.859 172.339 965.91 172.384C965.952 172.428 965.977 172.488 965.977 172.551C966.434 172.787 966.671 173.023 967.128 173.023C967.593 173.023 967.593 173.26 967.83 173.26C968.236 173.352 968.625 173.512 968.981 173.732C980.96 177.244 993.684 177.083 1005.57 173.272V141.156C988.21 142.809 985.892 140.447 985.664 123.926Z" fill="#133C3D"/>
<path d="M50.6947 0.47168H15.0206V48.1516H0V81.9087H15.5026C15.5026 100.555 15.0394 117.792 15.7341 135.493C16.1972 150.131 19.9024 163.818 34.0155 171.376C47.0091 177.715 61.8296 178.975 75.6728 174.919V142.573C72.0598 142.956 68.4273 143.114 64.7954 143.045C58.3178 142.573 52.2782 139.975 52.0654 132.423C51.6022 115.666 51.8338 99.8659 51.8338 82.1449H77.9823V48.3878H51.1454C50.6947 31.6306 50.6947 15.7926 50.6947 0.47168Z" fill="#133C3D"/>
</svg>
